<svg height="512" viewBox="0 0 512 512" width="512" xmlns="http://www.w3.org/2000/svg"><g id="Flat"><rect fill="#0093b9" height="384" rx="24" width="448" x="24" y="24"/><path d="m24 24h448a0 0 0 0 1 0 0v40a24 24 0 0 1 -24 24h-400a24 24 0 0 1 -24-24v-40a0 0 0 0 1 0 0z" fill="#cacac9" transform="matrix(-1 0 0 -1 496 112)"/><path d="m48 48h16v16h-16z" fill="#969595"/><path d="m80 48h16v16h-16z" fill="#969595"/><path d="m112 48h16v16h-16z" fill="#969595"/><path d="m40 104h416v288h-416z" fill="#2da4c4"/><circle cx="368" cy="288" fill="#eb5849" r="56"/><path d="m82.343 381.657-24-24a8 8 0 0 1 0-11.314l24-24 11.314 11.314-18.344 18.343 18.344 18.343z" fill="#57c3c1"/><path d="m176 336h32v32h-32z" fill="#f8bc1e" transform="matrix(-1 0 0 -1 384 704)"/><path d="m240 336h32v32h-32z" fill="#f8bc1e" transform="matrix(-1 0 0 -1 512 704)"/><path d="m112 336h32v32h-32z" fill="#f8bc1e" transform="matrix(-1 0 0 -1 256 704)"/><path d="m232 280h-48l-32-72-24 72h-56l6.22-112 1.78-32h144l1.78 32z" fill="#e3e4e2"/><g fill="#57c3c1"><path d="m288 128h16v16h-16z"/><path d="m320 128h112v16h-112z"/><path d="m272 160h160v16h-160z"/><path d="m272 192h128v16h-128z"/></g><path d="m225.78 168h-147.56l1.78-32h144z" fill="#85bb40"/><path d="m384 288a16 16 0 0 0 -32 0v72l-12.8 6.4a34.709 34.709 0 0 0 -3.76 59.92l8.56 5.68 13.28 8.88a23.944 23.944 0 0 1 10.72 20v27.12h96v-40a151.554 151.554 0 0 0 16-67.777v-28.223a16 16 0 0 0 -32 0v-24a16 16 0 0 0 -32 0v-8a16 16 0 0 0 -32 0z" fill="#f7c9a8"/><rect fill="#e5b18c" height="24" rx="8" width="16" x="440" y="344"/><rect fill="#e5b18c" height="32" rx="8" width="16" x="408" y="328"/><rect fill="#e5b18c" height="32" rx="8" width="16" x="376" y="320"/><rect fill="#e5b18c" height="40" rx="8" width="16" x="344" y="360"/></g></svg>