<svg id="Layer_3" enable-background="new 0 0 64 64" height="512" viewBox="0 0 64 64" width="512" xmlns="http://www.w3.org/2000/svg"><g><g><path d="m51 23h2v6.999h-2z" fill="#c18e59"/></g><g><path d="m11 23h2v6.999h-2z" fill="#c18e59"/></g><path d="m2 40h52v22h-52z" fill="#78b75b" transform="matrix(-1 0 0 -1 56 102)"/><path d="m6 40v-4h52v22h-4v-18z" fill="#96cc7f"/><path d="m10 36v-6h52v22h-4v-16z" fill="#78b75b"/><circle cx="28" cy="51" fill="#96cc7f" r="8"/><path d="m29.003 50h-.002v-2h.002c.551 0 .998.448.998 1h2c0-1.654-1.345-3-2.998-3h-.002v-1h-1.999v1c-1.654 0-3 1.346-3 3s1.346 2.999 3 2.999v2c-.552 0-1-.448-1-.999h-2c0 1.654 1.346 2.999 3 2.999v1h1.999v-1h.002c1.653 0 2.998-1.346 2.998-3s-1.345-2.999-2.998-2.999zm-3.001-1c0-.552.448-1 1-1v2c-.552 0-1-.449-1-1zm3.001 4.999h-.002v-2h.002c.551 0 .998.449.998 1.001 0 .551-.447.999-.998.999z" fill="#669e4f"/><g><path d="m6.002 58.999h11.999v-2h-10.999v-11.999h10.999v-2h-11.999c-.553 0-1 .447-1 1v14c0 .552.447.999 1 .999z" fill="#669e4f"/></g><g><path d="m38.001 59h11.999c.553 0 1-.448 1-1v-14c0-.553-.447-1-1-1h-11.999v2h10.999v12h-10.999z" fill="#669e4f"/></g><path d="m40 49h6v4h-6z" fill="#96cc7f" transform="matrix(-1 0 0 -1 86 102)"/><path d="m10 49h6v4h-6z" fill="#96cc7f" transform="matrix(-1 0 0 -1 26 102)"/><g><path d="m31 11h2v18.999h-2z" fill="#c18e59"/></g><path d="m52 24v-4c0-3.314 2.686-6 6-6v4c0 3.314-2.686 6-6 6z" fill="#669e4f"/><path d="m52 24v-4c0-3.314-2.686-6-6-6v4c0 3.314 2.686 6 6 6z" fill="#78b75b"/><path d="m12 24v-4c0-3.314 2.686-6 6-6v4c0 3.314-2.686 6-6 6z" fill="#78b75b"/><path d="m12 24v-4c0-3.314-2.686-6-6-6v4c0 3.314 2.686 6 6 6z" fill="#96cc7f"/><path d="m36 23h-4c0-3.314 2.686-6 6-6h4c0 3.314-2.686 6-6 6z" fill="#78b75b"/><path d="m28 23h4c0-3.314-2.686-6-6-6h-4c0 3.314 2.686 6 6 6z" fill="#96cc7f"/><path d="m32 12v-2c0-4.418 3.582-8 8-8v2c0 4.418-3.582 8-8 8z" fill="#669e4f"/><path d="m32 12v-2c0-4.418-3.582-8-8-8v2c0 4.418 3.582 8 8 8z" fill="#78b75b"/><g><path d="m28 60c4.962 0 9-4.037 9-9s-4.037-9-9-9-9 4.037-9 9c0 4.962 4.037 9 9 9zm0-16c3.859 0 7 3.14 7 7 0 3.859-3.14 7-7 7s-7-3.14-7-7 3.14-7 7-7z"/><path d="m26 53h-2c0 1.654 1.346 3 3 3v1h2v-1c1.654 0 2.999-1.346 2.999-3 0-1.655-1.345-3-2.999-3h-.001v-2h.001c.551 0 .999.448.999 1l2-.001c0-1.654-1.345-2.999-2.999-2.999h-.001v-1h-2v1c-1.654 0-3 1.346-3 3s1.346 3 3 3v2c-.551 0-.999-.449-.999-1zm0-4.001c0-.551.448-.999 1-.999v2c-.552 0-1-.449-1-1.001zm2.999 3.001c.552 0 1 .449 1 1 0 .552-.448 1-.999 1h-.001z"/><path d="m62.999 29.999c0-.552-.447-1-1-1h-9v-4.08c3.387-.487 6-3.4 6-6.92v-4c0-.553-.447-1-1-1-2.548 0-4.775 1.373-6 3.413-1.224-2.039-3.452-3.412-5.999-3.412-.265 0-.52.105-.707.292s-.293.442-.293.708v4c0 3.519 2.614 6.432 6 6.92v4.08h-18v-5h3c3.859 0 6.999-3.14 6.999-7 0-.553-.447-1-1-1h-4c-1.958 0-3.728.81-5 2.111v-5.17c4.493-.499 8-4.316 8-8.941v-2c0-.553-.447-1-1-1-3.484 0-6.505 1.993-8 4.896-1.495-2.903-4.516-4.896-7.999-4.896-.265 0-.52.105-.707.292s-.293.442-.293.708v2c0 4.624 3.507 8.442 8 8.941v5.164c-.018-.018-.033-.038-.05-.055-1.323-1.322-3.08-2.05-4.95-2.05h-4c-.266 0-.52.105-.708.292-.188.188-.293.443-.292.708 0 3.86 3.141 7 7 7h3v5h-18v-4.08c3.387-.487 6-3.4 6-6.92v-4c0-.553-.447-1-1-1-2.548 0-4.775 1.373-6 3.413-1.225-2.04-3.453-3.413-6-3.413-.265 0-.52.105-.707.292s-.293.442-.293.708v4c0 3.519 2.614 6.432 6 6.92v4.08h-1c-.553 0-1 .447-1 1v5h-3c-.553 0-1 .447-1 1v3h-3c-.552 0-1 .447-1 1v22c0 .552.447 1 1 1h52c.553 0 1-.448 1-1v-3h3c.553 0 1-.448 1-1v-5h3c.265 0 .52-.105.707-.293s.293-.442.293-.707zm-9.999-10c0-2.414 1.72-4.434 4-4.899v2.9c0 2.415-1.72 4.435-4 4.899zm-2.001 2.9c-2.279-.465-4-2.485-4-4.899v-2.9c2.279.465 4 2.485 4 4.899zm-13-4.899h2.9c-.465 2.279-2.485 4-4.899 4h-2.9c.464-2.28 2.484-4 4.899-4zm-10 4c-2.414 0-4.434-1.72-4.899-4h2.9c1.335 0 2.591.52 3.535 1.464.704.704 1.172 1.581 1.365 2.535h-2.901zm5.001-12.001c0-3.52 2.612-6.441 6-6.928v.929c0 3.521-2.612 6.442-6 6.929zm-2.001.93c-3.388-.487-5.999-3.409-5.999-6.929v-.929c3.388.487 6 3.409 6 6.928v.93zm-17.999 9.07c0-2.414 1.72-4.434 4-4.899v2.9c0 2.415-1.72 4.435-4 4.899zm-2.001 2.9c-2.279-.464-3.999-2.484-3.999-4.899v-2.9c2.279.465 4 2.485 4 4.899v2.9zm42 38.101h-49.999v-20h50v20zm4-4h-2v-17c0-.266-.105-.52-.292-.708s-.442-.292-.708-.292h-46.999v-2h50v20zm4.001-6h-2v-15c0-.553-.447-1-1-1h-47v-4h50z"/><path d="m6 59h12v-2h-11v-12h11v-2h-12c-.553 0-1 .447-1 1v14c0 .552.447 1 1 1z"/><path d="m50.999 58v-14c0-.553-.447-1-1-1h-11.999v2h11v12h-11v2h12c.552 0 .999-.448.999-1z"/><path d="m45.999 54c.553 0 1-.447 1-1v-4c0-.553-.447-1-1-1h-6c-.553 0-1 .447-1 1v4c0 .553.447 1 1 1zm-4.999-4h4v2h-4z"/><path d="m10 48c-.553 0-1 .447-1 1v4c0 .553.447 1 1 1h6c.553 0 1-.447 1-1v-4c0-.553-.447-1-1-1zm4.999 4h-4v-2h4z"/></g></g></svg>