<?xml version="1.0" encoding="iso-8859-1"?>
<!-- Generator: Adobe Illustrator 19.0.0, SVG Export Plug-In . SVG Version: 6.00 Build 0)  -->
<svg version="1.1" id="Capa_1" xmlns="http://www.w3.org/2000/svg" xmlns:xlink="http://www.w3.org/1999/xlink" x="0px" y="0px"
	 viewBox="0 0 512 512" style="enable-background:new 0 0 512 512;" xml:space="preserve">
<g>
	<g>
		<path d="M467.692,231.385h-14.371c-4.789-17.88-13.293-34.585-25.013-49.072v-74.005c0-8.157-6.613-14.769-14.769-14.769
			c-28.479,0-54.042,16.412-66.272,41.259c-7.355-1.247-14.829-1.875-22.343-1.875h-192c-1.506,0-3.005,0.034-4.5,0.085
			c-0.314,0.011-0.627,0.023-0.94,0.035C56.702,135.907,0,194.375,0,265.846v39.385c0,29.067,9.214,56.677,26.648,79.844
			c14.615,19.423,34.591,34.644,57.045,43.642v4.513c0,24.431,19.876,44.308,44.308,44.308c22.767,0,41.579-17.262,44.036-39.385
			h108.852c2.457,22.122,21.269,39.385,44.036,39.385c24.431,0,44.308-19.876,44.308-44.308v-2.646
			c41.275-14.562,72.801-48.669,84.094-90.893h14.367c24.431,0,44.308-19.876,44.308-44.308v-19.692
			C512,251.261,492.124,231.385,467.692,231.385z M215.208,270.769h22.505c20.554,0,37.275,16.721,37.275,37.275v11.253
			c0,19.367-14.848,35.326-33.758,37.104v7.906c0,8.157-6.613,14.769-14.769,14.769s-14.769-6.613-14.769-14.769v-7.906
			c-18.911-1.778-33.759-17.737-33.759-37.104c0-8.157,6.613-14.769,14.769-14.769s14.769,6.613,14.769,14.769
			c0,4.266,3.47,7.736,7.736,7.736h22.505c4.266,0,7.736-3.471,7.736-7.736v-11.253c0-4.266-3.47-7.736-7.736-7.736h-22.505
			c-20.554,0-37.275-16.721-37.275-37.275V251.78c0-19.367,14.848-35.326,33.759-37.104v-7.906c0-8.157,6.613-14.769,14.769-14.769
			s14.769,6.613,14.769,14.769v7.906c18.911,1.778,33.758,17.737,33.758,37.104c0,8.157-6.613,14.769-14.769,14.769
			s-14.769-6.613-14.769-14.769c0-4.266-3.47-7.736-7.736-7.736h-22.505c-4.266,0-7.736,3.471-7.736,7.736v11.253
			C207.472,267.299,210.942,270.769,215.208,270.769z"/>
	</g>
</g>
<g>
	<g>
		<path d="M216.615,34.462c-43.112,0-79.5,29.322-90.284,69.068c2.188-0.088,4.384-0.145,6.592-0.145H306.86
			C296.028,63.711,259.676,34.462,216.615,34.462z"/>
	</g>
</g>
<g>
</g>
<g>
</g>
<g>
</g>
<g>
</g>
<g>
</g>
<g>
</g>
<g>
</g>
<g>
</g>
<g>
</g>
<g>
</g>
<g>
</g>
<g>
</g>
<g>
</g>
<g>
</g>
<g>
</g>
</svg>
