<svg id="Layer_1" enable-background="new 0 0 512 512" height="512" viewBox="0 0 512 512" width="512" xmlns="http://www.w3.org/2000/svg"><g><path d="m350.87 295.554-256.375-124.575c-7.451-3.621-10.556-12.596-6.936-20.047l56.049-115.349c3.621-7.451 12.596-10.556 20.047-6.936l256.375 124.575c7.451 3.621 10.556 12.596 6.936 20.047l-56.049 115.349c-3.621 7.451-12.596 10.557-20.047 6.936z" fill="#b3e59f"/><path d="m420.028 153.222-256.371-124.574c-7.452-3.621-16.429-.515-20.05 6.937l-7.826 16.105 236.342 114.841c7.452 3.621 10.558 12.598 6.937 20.05l-48.222 99.24 20.029 9.732c7.452 3.621 16.429.515 20.05-6.937l56.047-115.345c3.622-7.452.517-16.428-6.936-20.049z" fill="#95d6a4"/><path d="m309.916 288.053-273.424-80.538c-7.947-2.341-12.491-10.68-10.15-18.627l36.236-123.02c2.341-7.947 10.68-12.491 18.627-10.15l273.424 80.539c7.947 2.341 12.491 10.68 10.15 18.627l-36.236 123.019c-2.341 7.947-10.681 12.491-18.627 10.15z" fill="#b3e59f"/><path d="m354.627 136.256-273.42-80.537c-7.948-2.341-16.288 2.204-18.629 10.152l-5.059 17.176 252.059 74.246c7.948 2.341 12.493 10.682 10.152 18.629l-31.176 105.839 21.361 6.292c7.948 2.341 16.288-2.204 18.629-10.152l36.235-123.016c2.34-7.947-2.205-16.288-10.152-18.629z" fill="#95d6a4"/><path d="m431.058 484.865h-386.058c-24.853 0-45-20.147-45-45v-270.195c0-24.853 20.147-45 45-45h386.058c24.853 0 45 20.147 45 45v270.195c0 24.852-20.147 45-45 45z" fill="#efc89d"/><path d="m431.053 124.67h-2.575v267.609c0 24.856-20.15 45.005-45.005 45.005h-383.473v2.575c0 24.856 20.15 45.005 45.005 45.005h386.047c24.856 0 45.005-20.15 45.005-45.005v-270.184c.001-24.856-20.148-45.005-45.004-45.005z" fill="#e7a561"/><path d="m502 359.346h-153.041c-34.393 0-62.273-27.881-62.273-62.273v-.015c0-34.393 27.881-62.273 62.273-62.273h153.041c5.523 0 10 4.477 10 10v104.562c0 5.522-4.477 9.999-10 9.999z" fill="#e7a561"/><path d="m501.999 234.784h-25.179v79.38c0 5.524-4.478 10.001-10.001 10.001h-153.033c-8.044 0-15.724-1.542-22.782-4.318 9.097 23.124 31.61 39.499 57.962 39.499h153.032c5.523 0 10.001-4.478 10.001-10.001v-104.56c.001-5.523-4.477-10.001-10-10.001z" fill="#e28424"/><path d="m476.058 175.558h-14.977c-4.143 0-7.501 3.358-7.501 7.501s3.358 7.501 7.501 7.501h14.977z" fill="#e28424"/><g fill="#e7a561"><path d="m374.261 190.56h-28.94c-4.143 0-7.501-3.358-7.501-7.501s3.358-7.501 7.501-7.501h28.94c4.143 0 7.501 3.358 7.501 7.501s-3.359 7.501-7.501 7.501zm-57.881 0h-28.94c-4.143 0-7.501-3.358-7.501-7.501s3.358-7.501 7.501-7.501h28.94c4.143 0 7.501 3.358 7.501 7.501s-3.358 7.501-7.501 7.501zm-57.879 0h-28.94c-4.143 0-7.501-3.358-7.501-7.501s3.358-7.501 7.501-7.501h28.94c4.143 0 7.501 3.358 7.501 7.501s-3.359 7.501-7.501 7.501zm-57.88 0h-28.94c-4.143 0-7.501-3.358-7.501-7.501s3.358-7.501 7.501-7.501h28.94c4.143 0 7.501 3.358 7.501 7.501s-3.359 7.501-7.501 7.501zm-57.88 0h-28.94c-4.143 0-7.501-3.358-7.501-7.501s3.358-7.501 7.501-7.501h28.94c4.143 0 7.501 3.358 7.501 7.501s-3.359 7.501-7.501 7.501zm-58.242 0h-28.94c-4.143 0-7.501-3.358-7.501-7.501s3.358-7.501 7.501-7.501h28.94c4.143 0 7.501 3.358 7.501 7.501s-3.358 7.501-7.501 7.501z"/><path d="m54.882 389.003c-4.143 0-7.501-3.358-7.501-7.501v-30.578c0-4.143 3.358-7.501 7.501-7.501s7.501 3.358 7.501 7.501v30.578c0 4.143-3.359 7.501-7.501 7.501zm0-61.156c-4.143 0-7.501-3.358-7.501-7.501v-30.577c0-4.143 3.358-7.501 7.501-7.501s7.501 3.358 7.501 7.501v30.577c0 4.143-3.359 7.501-7.501 7.501zm0-61.154c-4.143 0-7.501-3.358-7.501-7.501v-30.577c0-4.143 3.358-7.501 7.501-7.501s7.501 3.358 7.501 7.501v30.577c0 4.142-3.359 7.501-7.501 7.501z"/><path d="m374.261 434.557h-28.94c-4.143 0-7.501-3.358-7.501-7.501s3.358-7.501 7.501-7.501h28.94c4.143 0 7.501 3.358 7.501 7.501s-3.358 7.501-7.501 7.501zm-57.88 0h-28.94c-4.143 0-7.501-3.358-7.501-7.501s3.358-7.501 7.501-7.501h28.94c4.143 0 7.501 3.358 7.501 7.501s-3.359 7.501-7.501 7.501zm-57.88 0h-28.94c-4.143 0-7.501-3.358-7.501-7.501s3.358-7.501 7.501-7.501h28.94c4.143 0 7.501 3.358 7.501 7.501s-3.358 7.501-7.501 7.501zm-57.88 0h-28.94c-4.143 0-7.501-3.358-7.501-7.501s3.358-7.501 7.501-7.501h28.94c4.143 0 7.501 3.358 7.501 7.501s-3.358 7.501-7.501 7.501zm-57.88 0h-28.94c-4.143 0-7.501-3.358-7.501-7.501s3.358-7.501 7.501-7.501h28.94c4.143 0 7.501 3.358 7.501 7.501s-3.358 7.501-7.501 7.501zm-58.581 0h-28.94c-4.143 0-7.501-3.358-7.501-7.501s3.358-7.501 7.501-7.501h28.94c4.143 0 7.501 3.358 7.501 7.501s-3.358 7.501-7.501 7.501z"/></g><circle cx="351.282" cy="297.065" fill="#efecef" r="28.317"/><path d="m363.978 271.755c1.92 3.82 3.007 8.129 3.007 12.696 0 15.639-12.678 28.317-28.317 28.317-4.566 0-8.876-1.087-12.696-3.007 4.655 9.262 14.237 15.622 25.31 15.622 15.639 0 28.317-12.678 28.317-28.317.001-11.074-6.359-20.656-15.621-25.311z" fill="#d3ced5"/><path d="m476.058 419.555h-14.977c-4.143 0-7.501 3.358-7.501 7.501s3.358 7.501 7.501 7.501h14.977z" fill="#e28424"/><path d="m432.141 434.557h-28.94c-4.143 0-7.501-3.358-7.501-7.501s3.358-7.501 7.501-7.501h28.94c4.143 0 7.501 3.358 7.501 7.501s-3.358 7.501-7.501 7.501z" fill="#e7a561"/><path d="m432.141 190.56h-28.94c-4.143 0-7.501-3.358-7.501-7.501s3.358-7.501 7.501-7.501h28.94c4.143 0 7.501 3.358 7.501 7.501s-3.359 7.501-7.501 7.501z" fill="#e7a561"/><path d="m432.141 419.555h-12.879c-4.858 6.364-11.373 11.39-18.903 14.441.877.359 1.835.561 2.842.561h28.94c4.143 0 7.501-3.358 7.501-7.501s-3.358-7.501-7.501-7.501z" fill="#e28424"/><path d="m432.141 175.558h-3.663v15.002h3.663c4.143 0 7.501-3.358 7.501-7.501s-3.359-7.501-7.501-7.501z" fill="#e28424"/></g></svg>