<svg height="512" viewBox="0 0 64 64" width="512" xmlns="http://www.w3.org/2000/svg"><g id="Flat"><g id="Color_copy" data-name="Color copy"><g><path d="m22 9a1 1 0 0 1 -1-1v-2a1 1 0 0 1 2 0v2a1 1 0 0 1 -1 1z" fill="#93999a"/><path d="m5 29h54v32h-54z" fill="#d0d8da"/><path d="m5 29v3h44v5a18 18 0 0 1 -18 18h-26v6h54v-32z" fill="#93999a"/><path d="m10 33h26v24h-26z" fill="#57b7eb"/><path d="m42 41h12v20h-12z" fill="#57b7eb"/><path d="m48.539 41a17.985 17.985 0 0 1 -6.539 10.226v9.774h12v-20z" fill="#4891d3"/><path d="m42 33h12v4h-12z" fill="#c4f236"/><path d="m42 49h12v4h-12z" fill="#f9e109"/><path d="m54 53-8 8h8z" fill="#2d72bc"/><path d="m42 41v8l8-8z" fill="#4891d3"/><path d="m10 33v24h26v-24zm20 9a10 10 0 0 1 -10 10h-7v-13a3 3 0 0 1 3-3h14z" fill="#4891d3"/><path d="m13 13h38a4 4 0 0 1 4 4v4a0 0 0 0 1 0 0h-46a0 0 0 0 1 0 0v-4a4 4 0 0 1 4-4z" fill="#c4f236"/><path d="m53 18a5 5 0 0 1 -5-5h-32a5 5 0 0 1 -5 5h-2v3h46v-3z" fill="#a1d51c"/><path d="m3 21h58v8h-58z" fill="#c4f236"/><path d="m56.651 21a6 6 0 0 1 -5.651 4h-48v4h58v-8z" fill="#a1d51c"/><g><path d="m37.447 5.894-.894-1.788a2 2 0 0 0 -1.789-1.106h-5.528a2 2 0 0 0 -1.789 1.106l-.894 1.788a2 2 0 0 1 -1.789 1.106h-3.764a2 2 0 0 0 -2 2v10a2 2 0 0 0 2 2h22a2 2 0 0 0 2-2v-10a2 2 0 0 0 -2-2h-3.764a2 2 0 0 1 -1.789-1.106z" fill="#d0d8da"/><path d="m43 7h-3.764a2 2 0 0 1 -1.789-1.106l-.894-1.788a1.987 1.987 0 0 0 -1.553-1.073 2 2 0 0 1 -2 1.967h-2.89a.6.6 0 0 0 -.552.364 6 6 0 0 1 -5.515 3.636h-5.043v10a2 2 0 0 0 2 2h22a2 2 0 0 0 2-2v-10a2 2 0 0 0 -2-2z" fill="#93999a"/><path d="m19 11h2a2 2 0 0 1 2 2v2a2 2 0 0 1 -2 2h-2a0 0 0 0 1 0 0v-6a0 0 0 0 1 0 0z" fill="#57b7eb"/><circle cx="33" cy="14" fill="#656b76" r="4"/><circle cx="32" cy="13" fill="#57b7eb" r="4"/><circle cx="32" cy="13" fill="#4891d3" r="2"/><circle cx="31.293" cy="12.293" fill="#57b7eb" r="1"/><path d="m22 11.277v1.723a3 3 0 0 1 -3 3v1h2a2 2 0 0 0 2-2v-2a1.994 1.994 0 0 0 -1-1.723z" fill="#4891d3"/><path d="m43 7h-2v3a8 8 0 0 1 -8 8h-14v1a2 2 0 0 0 2 2h22a2 2 0 0 0 2-2v-10a2 2 0 0 0 -2-2z" fill="#656b76"/></g><path d="m36 54.281a17.941 17.941 0 0 1 -5 .719h-21v2h26z" fill="#2d72bc"/><g><path d="m27 47a2 2 0 0 0 -2-2h-4a2 2 0 0 0 -2 2 2 2 0 0 1 -2 2h-1a2 2 0 0 0 -2 2v6h18v-6a2 2 0 0 0 -2-2h-1a2 2 0 0 1 -2-2z" fill="#d0d8da"/><path d="m30 49h-1a1.988 1.988 0 0 1 -1.367-.547 9.976 9.976 0 0 1 -7.633 3.547h-6v5h18v-6a2 2 0 0 0 -2-2z" fill="#93999a"/><path d="m30 49h-1a6 6 0 0 1 -6 6h-9v2h18v-6a2 2 0 0 0 -2-2z" fill="#656b76"/><rect fill="#93999a" height="8" rx="2" width="16" x="15" y="37"/><path d="m29 37h-1v1a5 5 0 0 1 -5 5h-8a2 2 0 0 0 2 2h12a2 2 0 0 0 2-2v-4a2 2 0 0 0 -2-2z" fill="#656b76"/><circle cx="23" cy="54" fill="#4891d3" r="3"/><path d="m20 33a2 2 0 0 1 2 2v2a0 0 0 0 1 0 0h-4a0 0 0 0 1 0 0v-2a2 2 0 0 1 2-2z" fill="#fcbc04"/><circle cx="23" cy="41" fill="#4891d3" r="4"/><circle cx="23" cy="41" fill="#2d72bc" r="2"/><circle cx="23" cy="54" fill="#57b7eb" r="1"/><circle cx="22.293" cy="40.293" fill="#57b7eb" r="1"/><path d="m20.82 33.18a1.992 1.992 0 0 1 -1.82 2.82h-1v1h4v-2a2 2 0 0 0 -1.18-1.82z" fill="#e59730"/><path d="m15 39v3a2 2 0 0 0 2-2 1 1 0 0 1 1-1 1 1 0 0 0 1-1v-1h-2a2 2 0 0 0 -2 2z" fill="#d0d8da"/><path d="m19 47a1.987 1.987 0 0 1 -.277 1h8.554a1.987 1.987 0 0 1 -.277-1 2 2 0 0 0 -2-2h-4a2 2 0 0 0 -2 2z" fill="#93999a"/><path d="m18 36h4v1h-4z" fill="#fcbc04"/></g><path d="m50 41h-1.461a17.746 17.746 0 0 1 -.629 2.09z" fill="#2d72bc"/><path d="m36 26h-8a1 1 0 0 1 0-2h8a1 1 0 0 1 0 2z" fill="#f9e109"/><path d="m44 26h-4a1 1 0 0 1 0-2h4a1 1 0 0 1 0 2z" fill="#f9e109"/><path d="m52 26h-4a1 1 0 0 1 0-2h4a1 1 0 0 1 0 2z" fill="#f9e109"/><path d="m16 26h-4a1 1 0 0 1 0-2h4a1 1 0 0 1 0 2z" fill="#f9e109"/><path d="m24 26h-4a1 1 0 0 1 0-2h4a1 1 0 0 1 0 2z" fill="#f9e109"/><circle cx="56" cy="25" fill="#fcbc04" r="1"/><circle cx="8" cy="25" fill="#f9e109" r="1"/><path d="m41 12h-2a1 1 0 0 1 0-2h2a1 1 0 0 1 0 2z" fill="#f9e109"/><circle cx="39" cy="17" fill="#f9e109" r="1"/><g fill="#fcbc04"><path d="m28 26h8a1 1 0 0 0 1-1h-10a1 1 0 0 0 1 1z"/><path d="m40 26h4a1 1 0 0 0 1-1h-6a1 1 0 0 0 1 1z"/><path d="m47 25a1 1 0 0 0 1 1h4a.975.975 0 0 0 .935-1.325 5.961 5.961 0 0 1 -1.935.325z"/><path d="m12 26h4a1 1 0 0 0 1-1h-6a1 1 0 0 0 1 1z"/><path d="m20 26h4a1 1 0 0 0 1-1h-6a1 1 0 0 0 1 1z"/><path d="m8 26a1 1 0 0 0 1-1h-2a1 1 0 0 0 1 1z"/><path d="m41 12a1 1 0 0 0 0-2 7.992 7.992 0 0 1 -.262 2z"/></g><path d="m49 33h5v4h-5z" fill="#a1d51c"/></g></g></g></svg>